<svg width="46" height="45" viewBox="0 0 46 45" fill="none" xmlns="http://www.w3.org/2000/svg">
<path d="M41.6128 11.5816H37.0503V8.423C37.0503 8.14375 36.9394 7.87595 36.7419 7.6785C36.5444 7.48105 36.2766 7.37012 35.9974 7.37012H10.7283C10.4491 7.37012 10.1813 7.48105 9.98382 7.6785C9.78637 7.87595 9.67544 8.14375 9.67544 8.423V11.5816H5.11297C4.4614 11.5816 3.83653 11.8405 3.37581 12.3012C2.91508 12.7619 2.65625 13.3868 2.65625 14.0383V16.846C2.65625 18.6145 3.35879 20.3106 4.60933 21.5612C5.85987 22.8117 7.55596 23.5143 9.32448 23.5143H10.2264C11.0104 26.1782 12.5861 28.5406 14.7444 30.2879C16.9026 32.0353 19.5412 33.0848 22.31 33.2972V38.2546H17.7475C17.4683 38.2546 17.2005 38.3655 17.003 38.5629C16.8056 38.7604 16.6946 39.0282 16.6946 39.3074C16.6946 39.5867 16.8056 39.8545 17.003 40.0519C17.2005 40.2494 17.4683 40.3603 17.7475 40.3603H28.9782C29.2575 40.3603 29.5253 40.2494 29.7227 40.0519C29.9202 39.8545 30.0311 39.5867 30.0311 39.3074C30.0311 39.0282 29.9202 38.7604 29.7227 38.5629C29.5253 38.3655 29.2575 38.2546 28.9782 38.2546H24.4157V33.2972C30.1083 32.855 34.8445 28.8576 36.4572 23.5143H37.4012C39.1698 23.5143 40.8659 22.8117 42.1164 21.5612C43.3669 20.3106 44.0695 18.6145 44.0695 16.846V14.0383C44.0695 13.3868 43.8106 12.7619 43.3499 12.3012C42.8892 11.8405 42.2643 11.5816 41.6128 11.5816ZM9.32448 21.4085C8.11444 21.4085 6.95395 20.9278 6.09832 20.0722C5.24269 19.2165 4.76201 18.0561 4.76201 16.846V14.0383C4.76201 13.9453 4.79898 13.856 4.8648 13.7902C4.93062 13.7244 5.01989 13.6874 5.11297 13.6874H9.67544V19.6537C9.67715 20.2404 9.71524 20.8265 9.7895 21.4085H9.32448ZM34.9445 19.4958C34.9445 25.9218 29.7889 31.188 23.4506 31.2354C21.9223 31.2469 20.4068 30.9559 18.9915 30.3791C17.5762 29.8022 16.2891 28.951 15.2043 27.8743C14.1196 26.7977 13.2586 25.5171 12.6711 24.1062C12.0836 22.6953 11.7812 21.182 11.7812 19.6537V9.47587H34.9445V19.4958ZM41.9637 16.846C41.9637 18.0561 41.483 19.2165 40.6274 20.0722C39.7718 20.9278 38.6113 21.4085 37.4012 21.4085H36.9152C37.0046 20.7748 37.0498 20.1357 37.0503 19.4958V13.6874H41.6128C41.7058 13.6874 41.7951 13.7244 41.8609 13.7902C41.9267 13.856 41.9637 13.9453 41.9637 14.0383V16.846Z" fill="#8A1538"/>
</svg>
