<svg width="46" height="45" viewBox="0 0 46 45" fill="none" xmlns="http://www.w3.org/2000/svg">
<path d="M40.4417 10.232L23.5956 4.61668C23.3792 4.54444 23.1452 4.54444 22.9288 4.61668L6.08275 10.232C5.87325 10.302 5.69106 10.436 5.56194 10.6152C5.43282 10.7944 5.36333 11.0097 5.36328 11.2305V25.2689C5.36328 25.5481 5.47421 25.8159 5.67166 26.0134C5.86912 26.2108 6.13692 26.3218 6.41616 26.3218C6.6954 26.3218 6.9632 26.2108 7.16066 26.0134C7.35811 25.8159 7.46904 25.5481 7.46904 25.2689V12.6905L14.2566 14.9542C13.4007 16.2192 12.8206 17.6502 12.5543 19.1541C12.2879 20.658 12.3412 22.2012 12.7107 23.6832C13.0801 25.1651 13.7575 26.5527 14.6987 27.7556C15.6398 28.9585 16.8237 29.9498 18.1733 30.6649C14.7953 31.8108 11.856 34.1025 9.75028 37.3331C9.62923 37.565 9.5988 37.8336 9.66492 38.0866C9.73103 38.3396 9.88896 38.559 10.1079 38.702C10.3269 38.845 10.5913 38.9014 10.8495 38.8601C11.1078 38.8189 11.3415 38.6831 11.5051 38.479C14.2197 34.3219 18.5032 31.9371 23.2622 31.9371C28.0212 31.9371 32.3047 34.3219 35.0194 38.479C35.182 38.6874 35.417 38.827 35.6777 38.8701C35.9385 38.9132 36.206 38.8567 36.427 38.7117C36.648 38.5667 36.8064 38.3439 36.8707 38.0875C36.935 37.8312 36.9005 37.56 36.7742 37.3279C34.6684 34.1025 31.7326 31.8108 28.3511 30.6596C29.7 29.9437 30.883 28.9519 31.8233 27.7487C32.7636 26.5454 33.4401 25.1577 33.8087 23.6758C34.1773 22.1939 34.2298 20.6509 33.9628 19.1474C33.6958 17.6439 33.1153 16.2133 32.2591 14.9489L40.4417 12.229C40.6511 12.1589 40.8331 12.0249 40.9621 11.8457C41.0911 11.6665 41.1605 11.4513 41.1605 11.2305C41.1605 11.0097 41.0911 10.7945 40.9621 10.6154C40.8331 10.4362 40.6511 10.3021 40.4417 10.232ZM32.0362 21.0574C32.0368 22.4555 31.7033 23.8335 31.0635 25.0766C30.4237 26.3197 29.496 27.3919 28.3579 28.2039C27.2198 29.0159 25.904 29.5441 24.5204 29.7446C23.1367 29.9451 21.7252 29.812 20.4034 29.3564C19.0816 28.9009 17.8878 28.1361 16.9215 27.1257C15.9551 26.1153 15.2442 24.8887 14.848 23.5479C14.4517 22.2071 14.3816 20.7911 14.6435 19.4177C14.9054 18.0444 15.4917 16.7535 16.3536 15.6526L22.9288 17.8443C23.1452 17.9166 23.3792 17.9166 23.5956 17.8443L30.1709 15.6526C31.3813 17.1939 32.0383 19.0975 32.0362 21.0574ZM23.2622 15.7368L9.75028 11.2305L23.2622 6.7242L36.7742 11.2305L23.2622 15.7368Z" fill="#8A1538"/>
</svg>
