<svg width="46" height="45" viewBox="0 0 46 45" fill="none" xmlns="http://www.w3.org/2000/svg">
<path d="M40.9096 25.0328C40.429 24.6626 39.8692 24.4085 39.2741 24.2904C38.679 24.1723 38.0646 24.1934 37.479 24.352L36.7209 24.5274C40.5376 20.9792 42.4679 17.4626 42.4679 14.039C42.4679 9.58886 38.8899 5.96695 34.4906 5.96695C33.2499 5.95918 32.0245 6.24059 30.9115 6.78886C29.7985 7.33714 28.8285 8.1372 28.0786 9.12559C27.3286 8.1372 26.3587 7.33714 25.2457 6.78886C24.1327 6.24059 22.9072 5.95918 21.6665 5.96695C17.2673 5.96695 13.6892 9.58886 13.6892 14.039C13.6892 16.036 14.3262 17.9856 15.6704 20.0685C14.5686 20.2384 13.5502 20.7569 12.7645 21.5478L8.69157 25.6207H3.5114C2.85984 25.6207 2.23497 25.8795 1.77424 26.3402C1.31352 26.801 1.05469 27.4258 1.05469 28.0774V35.0966C1.05469 35.7482 1.31352 36.373 1.77424 36.8338C2.23497 37.2945 2.85984 37.5533 3.5114 37.5533H21.7613C21.8477 37.5533 21.9337 37.5427 22.0175 37.5217L33.2482 34.7141C33.3014 34.6999 33.3535 34.6824 33.4044 34.6614L40.2165 31.7625L40.2744 31.7362C40.8767 31.4354 41.3925 30.9862 41.7733 30.431C42.154 29.8757 42.3871 29.2327 42.4507 28.5625C42.5142 27.8922 42.4061 27.2169 42.1365 26.6C41.8669 25.9831 41.4447 25.445 40.9096 25.0363V25.0328ZM21.6665 8.07271C22.8245 8.05726 23.9607 8.38766 24.9298 9.02163C25.8988 9.65559 26.6567 10.5643 27.1064 11.6314C27.1857 11.8245 27.3207 11.9897 27.4941 12.106C27.6675 12.2222 27.8716 12.2843 28.0803 12.2843C28.2891 12.2843 28.4931 12.2222 28.6666 12.106C28.84 11.9897 28.9749 11.8245 29.0542 11.6314C29.5039 10.5643 30.2618 9.65559 31.2309 9.02163C32.2 8.38766 33.3362 8.05726 34.4941 8.07271C37.6738 8.07271 40.3622 10.8049 40.3622 14.039C40.3622 17.5907 37.5229 21.5847 32.1497 25.5768L29.5403 26.177C29.8006 25.4865 29.8895 24.7432 29.7994 24.0109C29.7093 23.2785 29.443 22.579 29.0232 21.9721C28.6034 21.3653 28.0427 20.8694 27.3892 20.5268C26.7356 20.1843 26.0088 20.0053 25.2709 20.0053H18.1938C16.5601 17.8417 15.795 15.936 15.795 14.039C15.795 10.8049 18.4833 8.07271 21.6665 8.07271ZM3.16044 35.0966V28.0774C3.16044 27.9843 3.19742 27.8951 3.26324 27.8292C3.32906 27.7634 3.41832 27.7264 3.5114 27.7264H8.07388V35.4476H3.5114C3.41832 35.4476 3.32906 35.4106 3.26324 35.3448C3.19742 35.2789 3.16044 35.1897 3.16044 35.0966ZM39.3584 29.8322L32.6551 32.6873L21.6314 35.4476H10.1796V27.1105L14.2525 23.0359C14.5452 22.7416 14.8933 22.5084 15.2768 22.3497C15.6602 22.1909 16.0714 22.1098 16.4864 22.1111H25.2709C25.9225 22.1111 26.5473 22.3699 27.0081 22.8306C27.4688 23.2914 27.7276 23.9162 27.7276 24.5678C27.7276 25.2194 27.4688 25.8442 27.0081 26.305C26.5473 26.7657 25.9225 27.0245 25.2709 27.0245H20.3575C20.0782 27.0245 19.8104 27.1355 19.613 27.3329C19.4155 27.5304 19.3046 27.7982 19.3046 28.0774C19.3046 28.3566 19.4155 28.6244 19.613 28.8219C19.8104 29.0194 20.0782 29.1303 20.3575 29.1303H25.9728C26.0519 29.1304 26.1308 29.1215 26.208 29.104L37.9651 26.3998L38.0072 26.3893C38.4497 26.2686 38.9212 26.3158 39.3311 26.5216C39.741 26.7274 40.0604 27.0774 40.228 27.5043C40.3955 27.9313 40.3994 28.4051 40.2389 28.8348C40.0784 29.2644 39.7649 29.6197 39.3584 29.8322Z" fill="#8A1538"/>
</svg>
