<svg width="158" height="108" viewBox="0 0 158 108" fill="none" xmlns="http://www.w3.org/2000/svg">
<g  clip-path="url(#clip0_146_1138)">
<path d="M98.3552 64.1833C98.2985 64.0335 98.1354 63.9479 97.9793 63.9836L97.9297 63.9978C97.4617 64.0977 97.1 64.0692 96.8447 63.9051C96.483 63.6626 96.3128 63.1206 96.3128 62.2361V54.2835C96.3128 51.1738 94.4477 49.6047 90.767 49.6047C87.4694 49.6047 84.888 51.1524 84.888 53.1281C84.888 54.1409 85.5121 54.8826 86.434 54.9896C87.0368 55.0395 87.6254 54.8042 88.0225 54.3548C88.8381 53.5061 88.7317 52.4933 87.746 51.4163C88.3275 50.81 89.3558 50.4534 90.533 50.4534C92.4478 50.4534 93.2633 51.5803 93.2633 54.2193V56.2307C92.8166 56.3662 92.3911 56.5017 91.6251 56.68C90.0791 57.0366 87.9516 57.5216 86.3489 58.3989C85.0298 59.1193 84.3561 60.2533 84.3561 61.7725C84.3561 63.4344 85.4482 65.3601 88.5402 65.3601C90.2706 65.3601 91.8166 64.547 93.4052 62.7996C93.547 64.6184 94.2349 65.2888 95.9227 65.2888C96.7312 65.2888 97.3766 65.1034 98.1425 64.7325C98.341 64.6326 98.4403 64.3973 98.3552 64.1833ZM93.2562 61.7511C92.8804 62.2718 91.6535 63.8124 90.1288 63.8124C88.0651 63.8124 87.6325 62.3788 87.6325 61.1663C87.6325 59.1835 89.1643 58.2705 93.2562 57.2649V61.7511ZM132.828 65.4243C128.453 65.4243 125.155 62.0222 125.155 57.5145C125.155 53.0995 128.594 49.5048 132.828 49.5048C137.112 49.5048 140.473 52.964 140.473 57.379C140.466 62.3503 136.502 65.4243 132.828 65.4243ZM132.658 50.3536C130.764 50.3536 128.602 51.1595 128.602 57.4503C128.602 62.2433 130.027 64.5756 132.963 64.5756C135.771 64.5756 137.019 62.3788 137.019 57.4503C137.019 52.6716 135.594 50.3536 132.658 50.3536ZM65.2013 49.7901C65.2013 53.449 64.2865 55.4604 59.6414 55.4604H57.1805V44.4051H59.7478C64.556 44.4123 65.2013 47.1297 65.2013 49.7901ZM57.1805 62.229V56.4803H59.4144C62.7405 56.4803 65.2722 55.7813 66.9388 54.4048C68.6834 52.964 69.045 51.131 69.045 49.8543C69.045 44.5977 63.9319 43.4922 59.6414 43.4922H59.6626H50.9611C50.7625 43.4922 50.6065 43.6491 50.6065 43.8488V43.8702V43.8631C50.6065 44.0414 50.72 44.1983 50.8902 44.2625C51.6632 44.5478 53.7694 44.1484 53.7694 46.3879V62.2219C53.7694 63.3773 53.2588 64.1904 50.9043 64.4044C50.72 64.4187 50.5781 64.5756 50.5781 64.761V64.8181C50.5781 65.0106 50.7341 65.1676 50.9327 65.1676H60.23C60.4215 65.1676 60.5846 65.0106 60.5846 64.8181V64.7681C60.5846 64.5827 60.4356 64.4329 60.2513 64.4115C57.6911 64.2118 57.1734 63.4344 57.1805 62.229ZM76.08 49.4977C72.0377 49.4977 68.7401 53.1281 68.7401 57.6001C68.7401 62.122 71.825 65.4029 76.08 65.4029C79.6543 65.4029 81.3918 63.2846 82.3917 61.6941C82.491 61.5372 82.4484 61.3232 82.2924 61.2233L82.2499 61.1877C82.0938 61.0807 81.8811 61.1092 81.7605 61.259C80.4415 62.8923 79.2997 63.8409 77.314 63.8409C74.8035 63.8409 72.1158 62.122 72.1158 57.3077V57.2791C72.1158 57.0652 72.1158 56.7727 72.1228 56.5017H82.3988C82.4272 56.5017 82.4484 56.4803 82.4555 56.4518L82.4626 56.3733C82.6044 54.3976 82.0442 52.6217 80.8741 51.3735C79.7323 50.1396 78.0728 49.4977 76.08 49.4977ZM72.1796 55.4746C72.5129 52.1795 73.8107 50.3678 75.8531 50.3678C76.8672 50.3678 77.626 50.646 78.1579 51.2237C78.8955 52.0083 79.2004 53.4419 79.0798 55.4675H72.1796V55.4746ZM118.673 55.6529C115.858 54.8684 114.766 54.0838 114.766 52.8285C114.766 51.4092 115.9 50.375 117.475 50.375C119.318 50.375 120.113 51.2522 122.063 54.4832L122.084 54.526C122.091 54.5403 122.098 54.5474 122.113 54.5545H122.396C122.595 54.5545 122.751 54.3976 122.751 54.1979V49.5547C122.751 49.5333 122.73 49.5048 122.73 49.5048H122.347C122.24 49.5048 122.141 49.5547 122.07 49.6332L121.446 50.3821C120.418 49.8258 119.269 49.5262 118.099 49.5048C114.872 49.5048 112.617 51.4805 112.617 54.312C112.617 56.9724 114.397 57.971 117.46 58.7912C120.446 59.5972 121.496 60.4459 121.496 62.0079C121.496 63.7482 119.801 64.5328 118.588 64.5328C116.34 64.5328 115.397 63.7054 113.241 59.8682L113.22 59.8254C113.212 59.8111 113.198 59.804 113.191 59.7969H112.9C112.702 59.7969 112.546 59.9538 112.546 60.1535V65.3601C112.546 65.3887 112.567 65.4101 112.603 65.4101H112.971C113.063 65.4101 113.156 65.3744 113.22 65.3031L114.198 64.3259C115.354 65.032 117.077 65.4029 118.191 65.4029C119.872 65.4029 121.247 64.8751 122.183 63.8766C123.013 62.985 123.474 61.7226 123.474 60.3247C123.481 57.9068 122.176 56.6372 118.673 55.6529ZM101.667 63.306C101.667 64.1048 101.461 64.3687 100.171 64.4472C99.9863 64.4615 99.8374 64.6112 99.8374 64.8038C99.8374 64.9964 99.9934 65.1533 100.192 65.1533H106.546C106.738 65.1533 106.901 64.9964 106.901 64.8109C106.901 64.6184 106.752 64.4686 106.567 64.4543C105.092 64.383 104.717 64.1476 104.717 63.306V54.0553C105.766 52.3292 106.518 51.4234 107.787 51.1524C107.723 51.3735 107.688 51.6089 107.688 51.8442C107.688 52.9712 108.475 53.7486 109.61 53.7486C110.61 53.7914 111.454 53.0139 111.503 52.0083C111.503 51.9512 111.503 51.8942 111.503 51.8371C111.503 50.7744 110.837 49.5333 108.95 49.5333C107.404 49.5333 105.929 50.4106 104.66 52.5147V50.1325C104.66 49.89 104.461 49.6974 104.227 49.7045C104.22 49.7045 104.22 49.7045 104.213 49.7045L100.206 49.8115C100.015 49.8186 99.8657 49.9755 99.8657 50.1681V50.218C99.8657 50.3964 99.9934 50.5461 100.164 50.5675C101.497 50.753 101.681 51.3806 101.681 52.0368L101.667 63.306ZM145.643 49.6974C145.735 49.6974 145.827 49.733 145.891 49.7972C145.962 49.8614 146.005 49.9541 146.005 50.0469L146.019 52.6859C146.019 52.6859 147.324 49.5904 151.557 49.5904H151.6C154.238 49.5904 155.749 51.2594 155.749 54.1694V63.2775C155.749 64.0763 155.954 64.3402 157.245 64.4187C157.437 64.4258 157.578 64.5827 157.578 64.7753C157.578 64.975 157.415 65.1319 157.224 65.1319H151.515C151.316 65.139 151.153 64.9893 151.146 64.7895C151.139 64.5898 151.288 64.4258 151.487 64.4187C152.522 64.3259 152.692 64.0692 152.692 63.2775V55.0681C152.692 52.3506 151.912 51.295 149.919 51.295C148.565 51.295 147.466 52.4648 146.778 53.4419C146.778 53.4419 146.423 53.877 146.04 54.7043L146.083 63.2917C146.083 64.0763 146.246 64.3402 147.253 64.4329C147.444 64.4686 147.579 64.654 147.544 64.8466C147.515 65.0107 147.38 65.1319 147.217 65.1462H141.53C141.338 65.1462 141.175 64.9893 141.175 64.7895C141.175 64.6041 141.324 64.4472 141.508 64.4329C142.792 64.3545 142.998 64.0906 142.998 63.2917V52.0368C142.998 51.3806 142.813 50.7458 141.473 50.5604C141.303 50.5319 141.175 50.3821 141.175 50.2109V50.161C141.175 49.9684 141.331 49.8115 141.523 49.8044L145.643 49.6974Z" fill="#3D3935"/>
<path d="M34.0335 33.6849C44.1038 39.3766 46.4512 52.1364 39.4374 65.0461C33.2818 76.3937 19.8358 81.2438 9.82229 75.4665C-0.198342 69.6893 -2.15566 53.5629 2.15612 44.2837C8.40394 30.8177 22.9137 27.3941 34.0335 33.6849Z" fill="#007FA3"/>
<path d="M33.7994 43.4715C35.7709 45.5613 36.3878 48.728 36.0403 51.3242C35.6503 54.2842 33.8348 57.0302 30.8279 58.8418C28.4451 60.2897 25.3034 60.8603 22.2185 60.8888C22.1902 61.3738 22.098 63.0428 22.0483 63.3138C21.9987 63.6134 21.864 63.8987 21.6725 64.134C21.3392 64.562 20.7647 64.8401 20.1974 65.0042C19.7435 65.1326 19.2967 65.1896 18.9705 65.1896C18.5592 65.1896 18.1692 65.0256 17.8784 64.7332C17.6444 64.4693 17.5096 64.1412 17.4883 63.7917L17.4671 63.4565C17.4032 63.1712 17.0416 48.778 17.1125 49.0347C17.1692 47.3087 19.9705 47.0091 21.4952 47.3087C23.0199 47.6154 22.637 49.4555 22.5944 51.7165C22.5944 51.7165 22.5235 54.6907 22.3816 57.8361C24.3248 57.7648 25.8708 57.2085 27.3104 56.5024C30.2322 55.0687 31.7711 52.8648 31.7711 49.6196C31.7711 46.3743 28.5869 42.7511 22.7221 42.7511C16.8501 42.7511 14.3325 44.2204 11.4958 46.5527C10.8505 47.0805 10.3611 47.6083 9.89309 47.9577C9.42503 48.3072 8.18398 48.3643 7.85775 47.5441C7.45353 46.5598 8.20525 45.4614 8.64494 44.9336C9.33284 44.1062 11.0349 42.423 12.9284 41.4459C15.0913 40.3261 17.7295 39.1207 21.4101 39.028C24.7361 38.9495 29.9982 39.2134 33.7852 43.4572M21.0697 67.308C20.7789 67.0797 20.4385 66.9157 20.0697 66.8372C19.9492 66.8158 19.8286 66.8016 19.7152 66.8016C19.0202 66.823 18.3819 67.1796 17.999 67.7573C17.6515 68.2423 17.5096 68.8414 17.5947 69.4334C17.6585 69.8043 17.7933 70.1253 17.999 70.3606C18.2259 70.6317 18.5805 70.8314 19.0202 70.9597C19.2684 71.0311 19.5308 71.0667 19.7861 71.0667C20.318 71.081 20.8356 70.9098 21.2612 70.5817C21.715 70.2251 21.9774 69.6688 21.9632 69.0911C21.9561 68.3921 21.6228 67.7359 21.0697 67.308Z" fill="white"/>
</g>
<defs>
<clipPath id="clip0_146_1138">
<rect width="157.579" height="108.554" fill="white"/>
</clipPath>
</defs>
</svg>
