<svg width="159" height="108" viewBox="0 0 159 108" fill="none" xmlns="http://www.w3.org/2000/svg">
<g>
<path d="M56.5798 61.4191L56.8902 60.1703C57.2007 60.2744 57.5112 60.4825 57.9251 60.6906C58.3391 60.8988 58.7531 61.1069 59.167 61.315C59.6845 61.5232 60.202 61.6272 60.8229 61.8354C61.4438 61.9394 62.1683 62.0435 62.8927 62.0435C64.0311 62.0435 65.1695 61.8354 66.2044 61.5232C67.2394 61.211 68.0673 60.6906 68.7917 60.1703C69.5162 59.5459 70.1371 58.8174 70.5511 57.9849C70.965 57.1524 71.172 56.2158 71.172 55.2792C71.172 54.2385 70.965 53.3019 70.6546 52.5735C70.2406 51.845 69.8266 51.2206 69.2057 50.8043C68.5847 50.284 67.9638 49.9718 67.2394 49.6596C66.5149 49.3474 65.894 49.1393 65.1695 48.9312L62.4788 48.2027C61.1334 47.7864 60.202 47.3702 59.4775 46.7458C58.8566 46.1214 58.4426 45.2888 58.4426 44.1441C58.4426 42.7913 58.8566 41.6465 59.6845 40.9181C60.5124 40.0855 61.6508 39.7733 62.9962 39.7733C64.2381 39.7733 65.1695 39.9815 65.894 40.3977C66.6184 40.814 67.2394 41.3343 67.7568 41.9587C68.2743 42.5831 68.5847 43.2075 68.8952 43.936C69.1022 44.6644 69.4127 45.2888 69.5162 45.9132H70.5511L70.2406 38.9408H69.2057L68.7917 39.9815C68.4813 39.8774 68.1708 39.6693 67.8603 39.4611C67.5498 39.253 67.1359 39.1489 66.6184 38.9408C66.101 38.8367 65.5835 38.6286 65.066 38.5245C64.4451 38.4205 63.8241 38.3164 63.0997 38.3164C62.2718 38.3164 61.3404 38.4205 60.5124 38.6286C59.581 38.8367 58.8566 39.253 58.0286 39.7733C57.3042 40.2937 56.6833 41.0221 56.2693 41.9587C55.7518 42.7913 55.5448 43.936 55.5448 45.1848C55.5448 46.3295 55.7518 47.2661 56.1658 47.9946C56.5798 48.723 57.0972 49.3474 57.7182 49.7637C58.3391 50.1799 58.9601 50.5962 59.581 50.8043C60.202 51.0125 60.8229 51.2206 61.2369 51.3247L63.5137 51.9491C64.4451 52.2613 65.273 52.4694 65.894 52.7816C66.5149 53.0938 66.9289 53.406 67.2394 53.8223C67.5498 54.2385 67.7568 54.5507 67.8603 54.967C67.9638 55.3833 68.0673 55.9036 68.0673 56.3199C68.0673 56.8402 67.9638 57.2565 67.7568 57.7768C67.5498 58.2971 67.2394 58.7134 66.8254 59.1296C66.4114 59.5459 65.894 59.8581 65.1695 60.0662C64.5486 60.2744 63.7207 60.4825 62.7892 60.4825C61.6508 60.4825 60.7194 60.2744 59.995 59.9622C59.2705 59.65 58.6496 59.1296 58.1321 58.6093C57.6147 57.9849 57.2007 57.3605 56.9937 56.6321C56.6833 55.9036 56.4763 55.1751 56.2693 54.4467H55.2344L55.4414 61.315L56.5798 61.4191ZM78.2094 61.4191V60.3784L77.278 60.2744C76.864 60.2744 76.5536 60.1703 76.3466 59.9622C76.1396 59.8581 75.9326 59.5459 75.9326 59.1296C75.9326 58.9215 75.9326 58.7134 76.0361 58.5052C76.1396 58.2971 76.2431 57.9849 76.3466 57.6727L78.0024 53.6141H86.9027L88.4551 57.3605C88.662 57.9849 88.869 58.5052 88.869 58.9215C88.869 59.754 88.3516 60.1703 87.2132 60.1703L86.1783 60.2744V61.315H95.6995V60.2744L94.6645 60.1703C94.0436 60.1703 93.6296 59.9622 93.4226 59.65C93.2157 59.3378 92.9052 58.9215 92.6982 58.2971L84.2119 38.5245H82.5561L74.5872 57.7768C74.2768 58.4012 73.9663 59.0256 73.6558 59.4418C73.2418 59.8581 72.8279 60.1703 72.2069 60.1703L71.379 60.2744V61.315H78.2094V61.4191ZM82.2456 42.9994L86.2817 52.2613H78.5199L82.2456 42.9994ZM105.842 61.4191C109.36 61.4191 112.051 60.8988 113.914 59.8581C115.777 58.8174 116.708 57.1524 116.708 54.967C116.708 54.2385 116.605 53.6141 116.294 52.9897C116.087 52.3653 115.673 51.9491 115.363 51.5328C114.949 51.1165 114.535 50.7003 114.017 50.4921C113.5 50.18 113.086 49.9718 112.569 49.7637C112.155 49.5556 111.637 49.4515 111.327 49.3474C110.913 49.2434 110.602 49.2434 110.395 49.2434C110.706 49.1393 111.016 49.0352 111.534 48.8271C112.051 48.619 112.569 48.3068 113.086 47.8905C113.603 47.4742 114.017 46.9539 114.431 46.3295C114.845 45.7051 114.949 44.9766 114.949 44.04C114.949 42.7913 114.638 41.8547 114.121 41.1262C113.603 40.3977 112.879 39.8774 112.051 39.5652C111.223 39.253 110.292 39.0449 109.36 38.9408C108.429 38.8367 107.497 38.8367 106.67 38.8367H97.4588V39.8774L98.8042 39.9815C99.4251 39.9815 99.7356 40.1896 100.046 40.3977C100.253 40.6059 100.357 41.0221 100.357 41.7506V58.6093C100.357 59.3378 100.253 59.754 100.046 59.9622C99.8391 60.1703 99.4251 60.2744 98.8042 60.3784L97.4588 60.4825V61.5232L105.842 61.4191ZM103.772 50.3881H106.359C107.187 50.3881 108.015 50.4921 108.843 50.5962C109.671 50.7003 110.395 51.0125 111.016 51.3247C111.637 51.7409 112.155 52.1572 112.569 52.7816C112.982 53.406 113.189 54.2385 113.189 55.2792C113.189 56.2158 113.086 56.9443 112.776 57.5686C112.465 58.193 112.051 58.7134 111.534 59.0256C111.016 59.4418 110.292 59.65 109.567 59.8581C108.843 60.0662 108.015 60.0662 107.083 60.0662C106.359 60.0662 105.842 59.9622 105.428 59.8581C105.014 59.754 104.703 59.5459 104.496 59.2337C104.289 58.9215 104.186 58.6093 104.082 58.193C103.979 57.7768 103.979 57.3605 103.979 56.8402L103.772 50.3881ZM103.772 39.9815H105.531C107.704 39.9815 109.257 40.2937 110.292 41.0221C111.327 41.7506 111.844 42.6872 111.844 44.04C111.844 44.8726 111.741 45.497 111.534 46.1214C111.327 46.6417 111.016 47.162 110.602 47.4742C110.188 47.7864 109.774 48.0986 109.36 48.3068C108.843 48.5149 108.429 48.619 107.911 48.723C107.497 48.8271 107.083 48.8271 106.463 48.9312C105.945 49.0352 105.324 49.0352 104.6 49.0352H103.772V39.9815ZM128.506 61.4191V60.3784L126.954 60.2744C126.333 60.2744 125.919 60.0662 125.712 59.8581C125.505 59.65 125.401 59.1296 125.401 58.4012V41.8547C125.401 41.1262 125.505 40.7099 125.712 40.3977C125.919 40.1896 126.333 39.9815 126.954 39.9815L128.506 39.8774V38.8367H119.192V39.8774L120.537 39.9815C121.158 39.9815 121.469 40.1896 121.779 40.3977C121.986 40.6059 122.09 41.1262 122.09 41.8547V58.4012C122.09 59.1296 121.986 59.5459 121.779 59.8581C121.572 60.0662 121.158 60.2744 120.537 60.2744L119.192 60.3784V61.4191H128.506ZM132.646 61.4191L132.956 60.1703C133.267 60.2744 133.577 60.4825 133.991 60.6906C134.405 60.8988 134.819 61.1069 135.233 61.315C135.751 61.5232 136.268 61.6272 136.889 61.8354C137.51 61.9394 138.234 62.0435 138.959 62.0435C140.097 62.0435 141.236 61.8354 142.271 61.5232C143.305 61.211 144.133 60.6906 144.858 60.1703C145.582 59.5459 146.203 58.8174 146.617 57.9849C147.031 57.1524 147.238 56.2158 147.238 55.2792C147.238 54.2385 147.031 53.3019 146.721 52.5735C146.307 51.845 145.893 51.2206 145.272 50.8043C144.651 50.284 144.03 49.9718 143.305 49.6596C142.581 49.3474 141.96 49.1393 141.236 48.9312L138.545 48.2027C137.199 47.7864 136.268 47.3702 135.544 46.7458C134.923 46.1214 134.509 45.2888 134.509 44.1441C134.509 42.7913 134.923 41.6465 135.751 40.9181C136.578 40.0855 137.717 39.7733 139.062 39.7733C140.304 39.7733 141.236 39.9815 142.064 40.3977C142.788 40.814 143.409 41.3343 143.926 41.9587C144.444 42.5831 144.754 43.2075 145.065 43.936C145.272 44.6644 145.582 45.2888 145.686 45.9132H146.721L146.41 38.9408H145.375L144.961 39.9815C144.651 39.8774 144.34 39.6693 144.03 39.4611C143.719 39.253 143.305 39.1489 142.788 38.9408C142.271 38.8367 141.753 38.6286 141.236 38.5245C140.615 38.4205 139.994 38.3164 139.269 38.3164C138.441 38.3164 137.51 38.4205 136.682 38.6286C135.751 38.8367 134.923 39.253 134.198 39.7733C133.474 40.2937 132.853 41.0221 132.439 41.9587C131.921 42.7913 131.714 43.936 131.714 45.1848C131.714 46.3295 131.921 47.2661 132.335 47.9946C132.749 48.723 133.267 49.3474 133.888 49.7637C134.509 50.1799 135.13 50.5962 135.751 50.8043C136.372 51.0125 136.992 51.2206 137.406 51.3247L139.683 51.9491C140.615 52.2613 141.443 52.4694 142.064 52.7816C142.684 53.0938 143.098 53.406 143.409 53.8223C143.719 54.2385 143.926 54.5507 144.03 54.967C144.133 55.3833 144.237 55.9036 144.237 56.3199C144.237 56.8402 144.133 57.2565 143.926 57.7768C143.719 58.2971 143.409 58.7134 142.995 59.1296C142.581 59.5459 142.064 59.8581 141.339 60.0662C140.718 60.2744 139.89 60.4825 138.959 60.4825C137.82 60.4825 136.889 60.2744 136.165 59.9622C135.44 59.65 134.819 59.1296 134.302 58.6093C133.784 57.9849 133.37 57.3605 133.163 56.6321C132.853 55.9036 132.646 55.1751 132.439 54.4467H131.404L131.611 61.315L132.646 61.4191ZM151.688 45.3929C152.102 45.601 152.516 45.7051 153.034 45.7051C153.551 45.7051 153.965 45.601 154.379 45.3929C154.793 45.1848 155.207 44.9766 155.517 44.6644C155.828 44.3522 156.035 43.936 156.242 43.5197C156.449 43.1034 156.552 42.6872 156.552 42.1669C156.552 41.6465 156.449 41.2303 156.242 40.814C156.035 40.3977 155.828 39.9815 155.517 39.6693C155.207 39.3571 154.793 39.1489 154.379 38.9408C153.965 38.7327 153.551 38.6286 153.034 38.6286C152.516 38.6286 152.102 38.7327 151.688 38.9408C151.274 39.1489 150.86 39.3571 150.55 39.6693C150.239 39.9815 150.032 40.3977 149.825 40.814C149.618 41.2303 149.515 41.6465 149.515 42.1669C149.515 42.6872 149.618 43.1034 149.825 43.5197C150.032 43.936 150.239 44.3522 150.55 44.6644C150.964 44.8726 151.274 45.1848 151.688 45.3929ZM150.239 43.3116C150.032 42.8953 150.032 42.5831 150.032 42.0628C150.032 41.6465 150.136 41.2303 150.239 40.814C150.446 40.3977 150.653 40.0855 150.86 39.7733C151.171 39.4611 151.481 39.253 151.792 39.1489C152.206 38.9408 152.516 38.9408 152.93 38.9408C153.344 38.9408 153.758 39.0449 154.069 39.1489C154.482 39.3571 154.793 39.5652 155 39.7733C155.31 40.0855 155.517 40.3977 155.621 40.814C155.828 41.2303 155.828 41.6465 155.828 42.0628C155.828 42.4791 155.724 42.8953 155.621 43.3116C155.414 43.7278 155.207 44.04 155 44.3522C154.689 44.6644 154.379 44.8726 154.069 44.9766C153.655 45.1848 153.344 45.1848 152.93 45.1848C152.516 45.1848 152.102 45.0807 151.792 44.9766C151.378 44.7685 151.067 44.5604 150.86 44.3522C150.653 44.04 150.446 43.7278 150.239 43.3116ZM153.034 43.936V43.6238C152.93 43.6238 152.93 43.6238 152.93 43.6238H152.827C152.723 43.6238 152.723 43.6238 152.723 43.6238C152.723 43.6238 152.723 43.5197 152.723 43.4156V42.2709C152.93 42.2709 153.137 42.375 153.241 42.4791C153.448 42.5831 153.551 42.7913 153.655 42.8953L154.172 43.7278H155.103V43.6238C155 43.6238 154.896 43.6238 154.793 43.5197C154.689 43.5197 154.689 43.4156 154.586 43.4156C154.482 43.3116 154.482 43.3116 154.379 43.2075C154.275 43.1035 154.275 42.9994 154.172 42.8953C154.069 42.7913 153.965 42.6872 153.965 42.5831C153.862 42.4791 153.862 42.4791 153.862 42.375L153.758 42.2709L153.655 42.1669C153.758 42.1669 153.758 42.1669 153.862 42.0628C153.965 42.0628 154.069 41.9587 154.172 41.8547C154.275 41.7506 154.379 41.6465 154.379 41.5425C154.482 41.4384 154.482 41.3343 154.482 41.1262C154.482 40.9181 154.482 40.814 154.379 40.7099C154.275 40.6059 154.172 40.5018 154.069 40.3977C153.965 40.2937 153.758 40.2937 153.655 40.1896C153.448 40.1896 153.344 40.1896 153.241 40.1896H151.585V40.5018H151.895C151.999 40.5018 151.999 40.5018 152.102 40.5018C152.102 40.5018 152.102 40.6059 152.102 40.7099V43.3116C152.102 43.4156 152.102 43.5197 152.102 43.5197H151.999H151.688V43.7278L153.034 43.936ZM152.516 40.814C152.516 40.7099 152.516 40.6059 152.516 40.6059C152.516 40.5018 152.62 40.5018 152.723 40.5018H152.827C153.137 40.5018 153.344 40.6059 153.448 40.7099C153.655 40.814 153.655 41.0221 153.655 41.3343C153.655 41.4384 153.655 41.6465 153.551 41.7506C153.448 41.8547 153.448 41.9587 153.344 41.9587C153.241 42.0628 153.137 42.0628 153.034 42.0628C152.93 42.0628 152.827 42.0628 152.723 42.0628H152.413L152.516 40.814Z" fill="#026937"/>
<path d="M29.6729 46.7465C29.3625 46.6425 28.7415 46.4343 28.638 46.8506C28.5345 47.1628 28.845 47.475 28.9485 47.7872C29.052 48.0994 28.845 48.5156 29.1555 48.8278C29.4659 49.2441 29.9834 48.6197 30.2939 48.4116C30.5009 48.2034 30.3974 47.7872 30.2939 47.475C30.0869 47.1628 29.9834 46.8506 29.6729 46.7465Z" fill="#026937"/>
<path d="M27.1866 46.8502C26.7726 46.9542 26.2552 46.8502 25.9447 47.0583C25.6342 47.2664 25.4272 48.099 25.8412 48.3071C26.0482 48.4112 26.2552 48.099 26.3587 47.8908C26.5656 47.6827 26.7726 47.7868 26.8761 47.9949C27.0831 48.5152 26.8761 49.0356 26.8761 49.5559C26.8761 49.764 26.9796 49.9721 27.0831 49.9721C27.2901 49.9721 27.3936 49.9721 27.4971 49.8681C28.0145 49.1396 27.3936 48.099 28.118 47.3705C28.325 47.1624 28.2215 46.8502 28.0145 46.7461C27.704 46.7461 27.4971 46.8502 27.1866 46.8502Z" fill="#026937"/>
<path d="M31.0164 44.0394C30.8095 43.9353 30.706 44.1435 30.6025 44.3516C30.499 44.5597 30.292 44.6638 30.085 44.8719C29.6711 45.1841 29.878 45.8085 30.292 46.0167C30.8095 46.2248 31.5339 46.1207 31.4304 45.3923C31.5339 44.8719 31.5339 44.2475 31.0164 44.0394Z" fill="#026937"/>
<path d="M27.393 35.7147C27.0825 35.5066 26.7721 35.5066 26.4616 35.7147C26.3581 35.8188 26.1511 35.9228 25.9441 35.9228C25.8406 35.9228 25.6337 36.0269 25.6337 36.131C25.5302 36.4432 25.9441 36.6513 26.0476 36.8594C26.2546 37.1716 26.3581 37.4838 26.6686 37.5879C27.0825 37.9001 27.807 37.796 28.2209 37.3798C28.3244 37.0676 28.014 36.8594 27.9105 36.5472C27.7035 36.3391 27.6 36.0269 27.393 35.7147Z" fill="#026937"/>
<path d="M32.466 47.6834C32.1555 47.4753 31.7415 47.6834 31.5346 47.9956C31.4311 48.3078 31.4311 48.7241 31.7415 48.8281C32.052 48.9322 32.466 48.8281 32.466 48.5159C32.5695 48.3078 32.7764 47.8915 32.466 47.6834Z" fill="#026937"/>
<path d="M24.601 47.6825C24.394 47.8906 24.601 48.2028 24.601 48.4109C24.601 48.7231 24.394 49.0353 24.2905 49.3475C24.0835 49.6597 23.9801 50.076 24.187 50.3882C24.394 50.9085 25.3254 51.1167 25.6359 50.4923C25.8429 49.6597 25.7394 48.7231 25.3254 47.9947C25.1185 47.8906 24.9115 47.4743 24.601 47.6825Z" fill="#026937"/>
<path d="M24.1867 46.5368C24.3937 46.4327 24.8077 46.2246 24.4972 46.0165C24.1867 45.8083 23.8763 46.0165 23.5658 45.9124C23.2553 45.8083 22.6344 45.3921 22.4274 45.8083C22.1169 46.849 23.6693 46.7449 24.1867 46.5368Z" fill="#026937"/>
<path d="M23.1497 38.7336C22.7357 38.5255 22.3217 38.5255 21.8043 38.5255C21.3903 38.5255 20.9763 38.2133 20.5624 38.1092C20.2519 38.0051 20.0449 38.1092 19.8379 38.3173C19.6309 38.5254 19.7344 38.8376 19.9414 38.9417C20.3554 39.2539 21.0798 39.0458 21.4938 39.358C21.8043 39.5661 21.4938 39.8783 21.2868 39.9824C20.9763 40.0864 20.6659 39.9824 20.4589 39.9824C19.9414 39.9824 19.424 40.1905 19.8379 40.7108C20.0449 40.919 20.2519 41.023 20.3554 41.1271C20.4589 41.2312 20.5624 41.4393 20.7694 41.5434C20.9763 41.8556 21.5973 42.48 21.8043 41.7515C21.9078 41.3352 21.5973 40.6068 22.1147 40.3986C22.5287 40.1905 23.1497 40.6068 23.5636 40.3986C24.2881 40.0864 23.4601 38.9417 23.1497 38.7336Z" fill="#026937"/>
<path d="M18.2862 39.2537C17.9758 39.1496 18.0793 38.9415 18.1827 38.7334C18.2862 38.5252 18.2862 38.3171 18.0793 38.213C17.8723 38.109 17.5618 38.0049 17.3548 37.9008C17.1478 37.7968 16.9408 37.6927 16.6304 37.5886C16.2164 37.3805 15.5955 37.6927 15.699 38.213C15.8024 38.6293 16.3199 38.7334 16.7339 38.9415C17.1478 39.2537 17.0443 39.8781 17.2513 40.2944C17.4583 40.7106 17.8723 41.1269 18.3897 41.0228C18.8037 41.0228 19.0107 40.5025 19.0107 40.0862C19.0107 39.8781 19.0107 39.67 18.8037 39.4618C18.7002 39.2537 18.4932 39.3578 18.2862 39.2537Z" fill="#026937"/>
<path d="M23.6696 51.5324C23.4626 51.4283 23.3591 51.4283 23.1521 51.3242C22.8417 51.3242 22.5312 51.4283 22.3242 51.5324C22.3242 51.5324 22.4277 51.6364 22.4277 51.7405C22.5312 52.0527 22.6347 52.3649 22.8417 52.573C23.0487 52.7811 23.2556 53.0933 23.5661 53.0933C23.8766 53.0933 24.0836 52.7811 24.1871 52.573C24.394 52.2608 24.394 51.9486 24.601 51.7405C24.7045 51.6364 24.808 51.6364 24.808 51.5324C24.808 51.5324 24.394 51.4283 24.1871 51.5324C24.0836 51.5324 23.8766 51.5324 23.6696 51.5324Z" fill="#026937"/>
<path d="M22.5321 49.2426C22.5321 49.0344 22.5321 48.8263 22.4286 48.6182C22.4286 48.41 22.3251 48.2019 22.2216 48.0978C22.1181 47.9938 22.0146 47.9938 21.8076 47.9938C21.6007 47.9938 21.3937 47.8897 21.1867 47.8897C20.7727 47.7856 20.3588 47.6816 19.9448 47.8897C19.8413 47.8897 19.8413 48.2019 19.9448 48.41C20.0483 48.5141 20.1518 48.7222 20.2553 48.8263C20.4623 49.1385 20.6692 49.5548 20.8762 49.867C20.9797 50.0751 21.0832 50.1792 21.1867 50.3873C21.2902 50.4914 21.2902 50.6995 21.4972 50.8035C21.6007 50.9076 21.8076 50.9076 21.9111 50.9076C22.0146 50.9076 22.0146 50.9076 22.1181 50.9076C22.6356 50.6995 22.5321 49.2426 22.5321 49.2426Z" fill="#026937"/>
<path d="M23.2541 47.7858C22.9436 48.2021 23.3576 48.6184 23.4611 49.0346C23.4611 49.1387 23.6681 49.7631 23.875 49.555C24.289 49.2428 24.082 48.7224 24.082 48.3062C24.082 48.098 24.082 47.7858 23.875 47.6818C23.6681 47.5777 23.3576 47.6818 23.2541 47.7858Z" fill="#026937"/>
<path d="M39.1927 45.2887C39.0892 45.3927 38.7787 45.2887 38.5718 45.2887C38.2613 45.2887 37.9508 45.1846 37.8473 44.7683C37.7438 44.4561 38.1578 44.1439 38.4683 44.248C38.6752 44.248 38.7787 44.4561 38.8822 44.5602C38.9857 44.6643 39.1927 44.6643 39.1927 44.8724C39.2962 44.9765 39.3997 45.0805 39.1927 45.2887ZM12.8024 46.4334C13.2164 46.3293 13.2164 45.809 13.4234 45.6009C13.7339 45.2887 13.9408 45.9131 14.2513 45.9131C14.4583 45.9131 14.6653 45.9131 14.6653 46.2253C14.6653 46.5374 14.3548 46.6415 14.1478 46.7456C13.6304 46.8496 13.1129 46.8496 12.8024 46.4334ZM42.0905 50.7001C41.2625 51.0123 40.1241 50.7001 39.3997 50.1798C39.0892 49.9716 38.7787 49.6594 38.5718 49.3472C38.4683 49.1391 38.3648 48.8269 38.0543 48.7228C37.6403 48.6188 37.9508 49.4513 38.0543 49.5554C38.1578 49.8676 38.4683 50.492 38.0543 50.7001C37.5368 50.9082 37.3299 50.2838 37.2264 49.8676C36.7089 48.4106 35.467 50.596 35.0531 51.0123C34.5356 51.4286 33.9147 51.5326 33.3972 51.2204C32.8797 50.8042 32.5693 50.2838 32.0518 49.8676C30.9134 49.035 26.7738 51.0123 27.3947 55.279C27.4982 55.6953 27.4982 56.1115 27.6017 56.4237C28.0157 58.0888 28.7401 59.0254 29.1541 59.4417C29.775 59.962 31.1204 59.8579 31.1204 60.3782C31.1204 60.5864 30.8099 60.6904 30.7064 60.6904C30.6029 60.6904 30.0855 60.8986 29.775 60.6904C29.1541 60.1701 28.7401 60.6904 28.5331 60.4823C28.0157 60.066 27.6017 59.2335 27.1877 58.2969C27.1877 58.6091 26.1528 55.4871 26.0493 55.1749C25.8423 54.7587 25.6354 54.2383 25.3249 53.9261C25.0144 53.6139 24.497 53.5099 24.1865 53.718C23.7725 53.9261 23.876 54.5505 23.9795 54.9668C24.1865 55.6953 24.497 56.3197 24.7039 57.0481C25.0144 57.7766 25.1179 58.6091 25.3249 59.3376C25.4284 59.6498 25.9458 61.0026 25.1179 60.7945C24.8074 60.6904 24.497 60.3782 24.29 60.066C24.083 59.7538 24.083 59.4417 24.083 59.0254C24.083 58.7132 24.1865 57.8807 23.669 57.8807C23.2551 57.8807 22.7376 58.401 22.6341 58.8173C22.5306 59.3376 23.1516 59.6498 23.2551 60.1701C23.2551 60.4823 23.0481 60.7945 22.7376 60.7945C22.4271 60.7945 22.1167 60.6904 21.8062 60.4823C21.7027 60.7945 21.3922 61.2108 20.9782 61.0026C20.6678 60.8986 20.5643 60.5864 20.2538 60.4823C19.7364 60.2742 19.2189 61.4189 18.598 60.5864C18.0805 60.066 19.7364 59.8579 20.4608 59.5457C21.0817 59.2335 21.5992 58.6091 22.0132 58.0888C22.4271 57.4644 22.4271 56.6319 22.4271 55.9034C22.4271 55.0709 22.3236 54.1343 22.2201 53.3017C22.2201 52.7814 22.2201 52.053 21.8062 51.6367C21.4957 51.6367 21.1852 51.6367 20.9782 51.7408C20.6678 51.7408 20.3573 51.8448 19.9433 51.9489C19.7364 52.053 19.3224 52.053 19.1154 51.9489C18.9084 51.7408 19.1154 51.5326 19.3224 51.4286C19.5294 51.2204 19.8398 51.2204 20.0468 51.0123C20.2538 50.8042 20.2538 50.3879 20.1503 50.0757C19.9433 49.4513 19.3224 48.8269 18.8049 48.5147C18.2875 48.2025 17.6665 47.9944 17.1491 48.5147C16.7351 49.035 16.9421 49.7635 17.3561 50.1798C17.563 50.3879 17.977 50.596 18.184 50.8042C18.391 51.0123 18.7014 51.3245 18.2875 51.4286C17.977 51.5326 17.6665 51.2204 17.4595 51.0123C17.1491 50.8042 16.7351 50.7001 16.4246 50.7001C15.8037 50.596 15.0792 50.8042 14.7688 51.3245C14.6653 51.5326 14.5618 51.6367 14.6653 51.8448C14.6653 51.9489 14.7688 52.157 14.6653 52.2611C14.5618 52.3652 14.3548 52.3652 14.2513 52.3652C13.9408 52.4692 13.5269 52.5733 13.4234 52.6774C13.1129 52.7814 12.8024 52.9895 12.492 53.1977C12.1815 53.5099 11.5605 53.6139 11.3536 52.9895C11.1466 52.5733 11.0431 51.6367 10.4221 51.6367C10.0082 51.6367 9.8012 51.9489 9.38723 51.9489C9.07676 51.9489 8.76628 51.8448 8.5593 51.6367C8.14534 51.3245 7.73137 50.8042 7.83486 50.1798C7.93835 49.4513 8.86978 49.7635 9.28374 49.9716C9.90469 50.2838 10.4221 50.9082 11.0431 51.3245C11.4571 51.7408 11.9745 52.053 12.5955 52.053C12.9059 52.157 13.7339 51.9489 13.5269 51.4286C13.4234 51.1164 13.0094 50.9082 12.9059 50.596C12.699 49.9716 13.6304 50.0757 13.9408 50.0757C14.3548 50.1798 15.0792 50.2838 15.0792 49.7635C15.0792 49.1391 14.4583 48.8269 13.9408 48.7228C13.3199 48.6188 12.492 48.8269 12.078 48.2025C11.664 47.5781 12.699 47.2659 13.1129 47.2659C13.4234 47.2659 13.8374 47.37 14.1478 47.5781C14.4583 47.7862 14.6653 47.9944 14.9758 48.2025C15.2862 48.4106 15.5967 48.5147 15.9072 48.3066C16.1142 48.2025 16.2177 47.8903 16.1142 47.6822C15.9072 47.2659 15.3897 47.0578 15.1827 46.6415C15.0792 46.3293 15.1827 46.0171 15.4932 45.9131C15.8037 45.809 16.1142 45.913 16.3211 46.1212C16.8386 46.5374 17.0456 47.2659 17.6665 47.474C17.977 47.5781 18.391 47.6822 18.598 47.37C18.8049 47.1618 18.598 46.8496 18.2875 46.7456C17.977 46.5374 17.3561 46.4334 17.3561 45.9131C17.3561 45.2887 17.977 45.2887 18.391 45.4968C18.7014 45.6009 19.7364 46.5374 20.0468 46.1212C20.1503 45.913 19.9433 45.6009 19.9433 45.3927C19.8398 45.1846 19.8398 44.7683 20.2538 44.7683C20.6678 44.7683 20.7713 45.809 21.2887 45.7049C21.4957 45.7049 21.4957 45.4968 21.7027 45.3927C21.8062 45.2887 22.0132 45.2887 22.1167 45.2887C22.4271 45.1846 22.6341 44.9765 22.9446 44.7683C23.2551 44.6643 23.5655 44.6643 23.9795 44.6643C24.29 44.6643 24.3935 44.3521 24.7039 44.248C25.0144 44.0399 25.3249 44.248 25.5319 44.3521C25.8423 44.4561 26.0493 44.3521 26.0493 44.0399C26.1528 43.8317 26.0493 43.5195 26.1528 43.3114C26.2563 42.9992 26.3598 42.7911 26.1528 42.4789C25.9458 42.2707 25.6354 42.0626 25.4284 41.7504C25.2214 41.5423 25.1179 41.2301 24.8074 41.2301C24.3935 41.126 23.7725 41.2301 23.7725 41.7504C23.7725 42.0626 24.083 42.2707 24.3935 42.4789C24.497 42.4789 24.7039 42.4789 24.7039 42.687C24.7039 42.7911 24.8074 42.7911 24.8074 42.8951C24.7039 43.3114 24.29 43.5195 23.876 43.4155C23.669 43.4155 23.5655 43.2073 23.3585 43.3114C23.1516 43.4155 23.2551 43.6236 23.1516 43.7277C22.9446 44.0399 22.5306 43.7277 22.4271 43.5195C22.3236 43.4155 22.3236 43.2073 22.1167 42.9992C22.1167 42.9992 21.8062 42.8951 21.7027 42.7911C21.3922 42.4789 20.9783 42.5829 20.5643 42.5829C20.2538 42.5829 19.6329 42.687 19.8398 43.2073C19.9433 43.6236 20.3573 44.0399 19.8398 44.3521C19.5294 44.6643 19.0119 44.5602 18.7014 44.3521C18.391 44.1439 18.0805 43.8317 17.77 43.9358C17.4595 43.9358 17.6665 44.248 17.77 44.4561C17.977 44.8724 17.563 44.8724 17.2526 44.8724C16.8386 44.8724 16.4246 44.7683 16.0107 44.6643C15.7002 44.5602 15.3897 44.3521 15.0792 44.248C14.7688 44.1439 14.4583 44.248 14.0443 44.3521C13.6304 44.4561 13.2164 44.4561 12.8024 44.248C12.492 44.0399 12.1815 43.8317 11.871 43.7277C11.2501 43.6236 10.8361 43.6236 10.5256 43.3114C10.3187 43.1033 10.3187 42.7911 10.4221 42.5829C10.5256 42.2707 11.0431 42.3748 11.2501 42.0626C11.4571 41.7504 11.664 41.6463 12.078 41.7504C12.3885 41.8545 12.5955 41.9585 12.699 42.2707C12.8024 42.5829 12.8024 42.7911 12.9059 43.1033C13.1129 43.4155 13.5269 43.4155 13.8374 43.4155C14.2513 43.3114 14.4583 43.4155 14.8723 43.5195C15.1827 43.6236 15.4932 43.6236 15.8037 43.4155C16.0107 43.3114 16.0107 42.9992 15.9072 42.7911C15.7002 42.4789 15.1827 42.3748 14.7688 42.3748C14.1478 42.2707 13.7339 41.8545 13.1129 41.6463C12.699 41.5423 11.871 41.5423 12.078 40.9179C12.285 40.2935 13.3199 40.1894 13.7339 40.7097C13.9408 40.9179 14.0443 41.3341 14.4583 41.3341C14.7688 41.4382 15.0792 41.2301 15.2862 41.3341C15.4932 41.3341 16.4246 42.0626 16.6316 41.5423C16.7351 41.2301 16.4246 41.0219 16.2177 40.8138C16.0107 40.5016 16.0107 40.1894 16.0107 39.8772C16.0107 39.565 15.9072 39.2528 15.7002 39.0447C15.3897 38.8366 15.0792 38.8366 14.7688 38.6284C14.2513 38.2122 14.2513 37.3796 14.6653 36.9634C14.9758 36.2349 15.7002 36.339 16.3211 36.6512C16.6316 36.8593 16.9421 37.0674 17.3561 37.0674C17.6665 37.0674 17.8735 36.7552 17.8735 36.443C17.77 35.9227 16.9421 36.1308 16.5281 35.9227C16.2177 35.8186 16.1142 35.4024 16.4246 35.0902C16.6316 34.882 16.9421 34.778 17.2526 34.6739C17.77 34.5698 18.4945 34.778 18.598 35.4024C18.7014 35.7146 18.4945 36.8593 19.0119 36.8593C19.3224 36.8593 19.5294 36.5471 19.8398 36.5471C20.0468 36.5471 20.2538 36.8593 20.3573 37.0674C20.8748 37.6918 21.3922 36.7552 22.0132 36.6512C22.7376 36.5471 23.0481 37.4837 23.7725 37.5878C24.083 37.5878 24.497 37.4837 24.7039 37.7959C24.9109 38.004 24.9109 38.3162 24.8074 38.5244C24.8074 38.8366 24.8074 39.1488 24.9109 39.4609C25.0144 39.7731 25.3249 39.9813 25.3249 40.2935C25.3249 40.6057 25.2214 40.9179 25.4284 41.126C25.6354 41.3341 26.0493 41.3341 26.2563 41.2301C26.5668 41.126 26.7738 40.8138 26.7738 40.5016C26.7738 40.2935 26.6703 39.9813 26.7738 39.7731C26.8772 39.4609 27.2912 39.565 27.3947 39.7731C27.6017 39.8772 27.8087 40.0853 28.1191 39.9813C28.6366 39.7731 28.7401 38.9406 28.3261 38.6284C27.8087 38.2122 27.2912 38.7325 26.8772 39.0447C26.5668 39.3569 25.8423 39.7731 25.4284 39.2528C25.0144 38.8366 26.0493 38.6284 26.0493 38.2122C26.0493 37.6918 25.2214 37.4837 25.0144 37.1715C24.8074 36.8593 24.9109 36.5471 24.8074 36.339C24.7039 36.0268 24.497 35.9227 24.1865 35.9227C23.7725 35.8186 23.5655 35.6105 23.2551 35.4024C23.0481 35.1942 22.7376 35.0902 22.5306 34.882C22.3236 34.778 22.1167 34.5698 22.2201 34.2576C22.3236 33.9454 22.6341 33.8414 22.8411 33.9454C23.2551 34.0495 23.669 34.778 24.29 34.5698C24.497 34.4658 24.7039 34.1536 24.6004 33.8414C24.6004 33.5292 24.29 33.4251 24.083 33.321C23.876 33.217 23.5655 33.217 23.462 33.0088C23.3585 32.8007 23.3585 32.3845 23.5655 32.2804C23.876 32.1763 24.1865 32.0723 24.497 32.0723C24.8074 32.1763 25.1179 32.3845 25.4284 32.4885C25.7388 32.6966 26.1528 32.6966 26.5668 32.5926C26.8772 32.4885 27.1877 32.3845 27.4982 32.4885C27.8087 32.5926 27.8087 33.0088 27.6017 33.217C27.3947 33.4251 27.1877 33.4251 26.8772 33.321C26.6703 33.1129 26.4633 33.217 26.1528 33.217C25.9458 33.217 25.4284 33.321 25.4284 33.6332C25.4284 33.9454 25.7388 34.0495 25.9458 34.2576C26.0493 34.4658 25.9458 34.778 26.0493 34.9861C26.2563 35.2983 26.7738 34.778 26.9807 34.5698C27.2912 34.2576 27.9122 33.8414 28.0157 34.5698C28.0157 34.9861 28.0157 35.1942 28.4296 35.2983C28.7401 35.4024 28.8436 35.7146 28.9471 36.0268C29.1541 36.5471 28.8436 37.2756 29.1541 37.5878C29.568 38.004 29.982 37.2756 30.2925 37.0674C30.4994 36.9634 30.8099 36.8593 31.0169 37.0674C31.2239 37.3796 30.9134 37.6918 30.7064 37.7959C30.6029 37.9 30.396 38.004 30.4994 38.2122C30.6029 38.3162 30.7064 38.4203 30.8099 38.3162C31.1204 38.2122 31.3274 38.004 31.6378 38.2122C31.7413 38.3162 31.9483 38.5244 31.9483 38.6284C32.2588 38.8366 32.5693 38.8366 32.8797 38.7325C33.0867 38.6284 33.1902 38.3162 32.9832 38.1081C32.7762 38.004 32.5693 37.9 32.2588 37.9C31.8448 37.7959 31.4309 37.4837 31.5344 36.9634C31.7413 36.5471 32.2588 36.5471 32.5693 36.8593C32.9832 37.1715 33.1902 37.6918 33.6042 38.004C33.9147 38.2122 34.3286 38.2122 34.6391 38.2122C35.0531 38.1081 35.1565 37.7959 34.9496 37.4837C34.7426 37.2756 34.5356 37.0674 34.5356 36.7552C34.5356 36.443 34.6391 36.2349 34.8461 36.0268C35.1565 35.7146 36.2949 35.0902 36.3984 35.8186C36.3984 36.339 35.7775 36.8593 35.9845 37.3796C36.295 38.004 37.2264 37.6918 37.7438 37.7959C37.9508 37.9 38.2613 38.1081 38.3648 38.3162C38.3648 38.6284 38.1578 38.8366 37.8473 38.9406C37.2264 39.1488 36.6054 38.8366 36.2949 39.4609C36.1915 39.7731 35.9845 39.9813 35.674 39.8772C35.3635 39.7731 35.26 39.4609 34.9496 39.3569C34.6391 39.2528 34.4321 39.565 34.3286 39.7731C34.2251 39.9813 34.1216 40.2935 33.9147 40.2935C33.6042 40.2935 33.5007 39.8772 33.2937 39.7731C33.0867 39.565 32.7762 39.3569 32.4658 39.3569C31.7413 39.4609 31.9483 40.2935 32.2588 40.7097C32.4658 41.126 32.8797 41.9585 32.1553 42.1667C31.3274 42.3748 31.2239 41.2301 31.2239 40.7097C31.1204 40.1894 30.8099 39.4609 30.0855 39.6691C29.775 39.7731 29.568 39.9813 29.568 40.2935C29.6715 40.6057 29.8785 40.8138 30.189 41.126C30.4994 41.4382 30.8099 41.9585 30.9134 42.4789C31.0169 42.9992 30.4994 43.3114 29.982 43.1033C29.6715 42.9992 29.568 42.687 29.568 42.3748C29.568 42.1667 29.361 41.8545 29.1541 41.8545C28.7401 41.8545 28.4296 42.3748 28.2226 42.687C27.9122 42.9992 27.4982 42.8951 27.0842 43.1033C26.8772 43.2073 26.7738 43.3114 26.7738 43.5195C26.7738 43.8317 26.9807 43.9358 27.2912 44.0399C27.6017 44.1439 27.9122 44.3521 28.2226 44.5602C28.5331 44.7683 28.7401 44.5602 28.8436 44.248C28.9471 43.9358 29.1541 43.8317 29.4645 43.7277C29.775 43.6236 30.189 43.6236 30.4994 43.6236C30.9134 43.5195 31.2239 43.4155 31.6378 43.5195C31.9483 43.6236 32.1553 43.8317 32.4658 43.9358C33.2937 44.1439 33.2937 43.2073 33.5007 42.687C33.6042 42.2707 33.7077 41.9585 33.9147 41.5423C34.0181 41.2301 34.1216 41.0219 34.4321 40.8138C35.0531 40.5016 35.5705 41.0219 35.5705 41.6463C35.5705 42.1667 35.1565 42.5829 35.1565 43.1033C35.1565 43.3114 35.3635 43.5195 35.5705 43.6236C35.7775 43.6236 35.9845 43.5195 36.088 43.3114C36.3984 42.8951 36.6054 42.3748 37.1229 42.0626C37.6403 41.7504 38.2613 41.7504 38.7787 41.9585C39.1927 42.1667 39.7102 42.687 39.3997 43.2073C39.1927 43.6236 38.5718 43.7277 38.1578 43.6236C37.6403 43.6236 37.0194 43.4155 36.6054 43.7277C35.881 44.1439 36.3984 44.8724 36.9159 45.2887C37.1229 45.3927 38.1578 46.2253 37.6403 46.4334C37.3299 46.5374 37.1229 46.4334 37.0194 46.2253C36.8124 46.0171 36.7089 45.9131 36.3984 45.809C36.088 45.7049 36.088 45.3927 35.9845 45.0805C35.9845 44.7683 35.7775 44.5602 35.467 44.4561C34.9496 44.248 34.3286 44.248 33.8112 44.4561C33.5007 44.5602 33.3972 44.9765 33.6042 45.1846C33.8112 45.3927 34.1216 45.6009 34.3286 45.809C34.6391 46.0171 34.9496 46.2253 35.3635 46.2253C35.674 46.3293 35.9845 46.3293 36.2949 46.5374C36.5019 46.7456 36.6054 47.0578 36.2949 47.1618C35.9845 47.37 35.674 47.0578 35.467 46.8496C35.26 46.6415 34.9496 46.4334 34.6391 46.6415C34.4321 46.7456 34.3286 47.1618 34.0181 47.1618C33.7077 47.1618 33.6042 46.8496 33.5007 46.6415C33.3972 46.4334 33.0867 46.3293 32.7762 46.3293C32.2588 46.4334 32.1553 47.0578 32.4658 47.474C32.8797 48.0984 33.7077 47.7862 34.3286 47.9944C34.5356 48.0984 35.674 48.3066 35.0531 48.6188C34.7426 48.8269 34.4321 48.7228 34.1216 48.7228C33.8112 48.7228 33.6042 49.035 33.6042 49.3472C33.5007 49.8676 33.7077 50.492 34.0181 50.8042C34.2251 51.0123 34.4321 51.0123 34.7426 50.9082C35.0531 50.7001 34.9496 50.3879 34.7426 50.1798C34.5356 49.9716 34.3286 49.7635 34.2251 49.4513C34.2251 49.1391 34.5356 49.2432 34.7426 49.3472C35.0531 49.5554 35.26 49.8676 35.674 49.8676C35.9845 49.8676 36.1915 49.5554 36.2949 49.3472C36.3984 48.8269 35.467 48.0984 35.881 47.5781C36.2949 47.0578 36.7089 47.9944 37.2264 47.9944C37.5368 47.9944 37.5368 47.5781 37.6403 47.37C37.8473 47.0578 38.1578 47.0578 38.4683 47.1618C39.0892 47.37 39.0892 47.9944 39.1927 48.5147C39.2962 49.1391 39.5032 49.7635 40.1241 50.0757C40.8486 50.3879 41.6765 50.1798 42.2974 49.8676C42.6079 49.7635 42.9184 49.9716 42.9184 50.2838C42.8149 50.3879 42.5044 50.596 42.0905 50.7001ZM40.4346 52.3652C40.4346 52.3652 39.8137 52.8855 39.3997 52.9895C39.0892 53.0936 38.3648 52.9895 38.0543 52.7814C37.7438 52.5733 37.6403 52.2611 37.7438 52.053C37.8473 51.6367 38.2613 51.4286 38.6752 51.3245C38.8822 51.2204 39.0892 51.3245 39.2962 51.3245C39.5032 51.4286 39.6067 51.5326 39.8137 51.6367C40.2276 51.8448 40.5381 51.4286 40.7451 51.2204C40.8486 51.1164 41.366 51.0123 41.366 51.3245C41.366 51.8448 40.7451 52.157 40.4346 52.3652ZM32.7762 66.7263C32.6728 66.9344 32.5693 67.1425 32.4658 67.2466C32.3623 67.4547 32.1553 67.5588 31.9483 67.6629C31.7413 67.7669 31.5344 67.7669 31.2239 67.7669C30.9134 67.7669 30.7064 67.6629 30.4994 67.5588C30.2925 67.4547 30.0855 67.3507 29.982 67.1425C29.8785 66.9344 29.6715 66.7263 29.6715 66.5182C29.568 66.31 29.568 65.9978 29.568 65.7897C29.568 65.3734 29.6715 64.9572 29.8785 64.5409C30.0855 64.2287 30.2925 63.9165 30.6029 63.6043C30.9134 63.3962 31.1204 63.188 31.4309 62.9799C31.7413 62.8758 32.0518 62.7718 32.2588 62.6677H32.3623L32.4658 62.9799C32.2588 63.084 32.1553 63.188 31.9483 63.2921C31.7413 63.3962 31.6378 63.5002 31.5344 63.7084C31.4309 63.8124 31.3274 64.0206 31.2239 64.2287C31.1204 64.3328 31.1204 64.5409 31.0169 64.749C31.1204 64.749 31.1204 64.749 31.2239 64.645C31.3274 64.645 31.5344 64.5409 31.6378 64.5409C31.8448 64.5409 32.1553 64.5409 32.2588 64.645C32.4658 64.749 32.5693 64.8531 32.7762 64.9572C32.8797 65.0612 32.9832 65.2694 33.0867 65.4775C33.1902 65.6856 33.1902 65.8938 33.1902 66.1019C32.8797 66.31 32.8797 66.5182 32.7762 66.7263ZM28.8436 66.8303C28.7401 67.0385 28.6366 67.1425 28.5331 67.3507C28.4296 67.4547 28.2226 67.5588 28.0157 67.6629C27.8087 67.7669 27.6017 67.7669 27.2912 67.7669C27.0842 67.7669 26.8772 67.7669 26.6703 67.6629C26.4633 67.5588 26.2563 67.5588 26.1528 67.4547C26.0493 67.3507 25.8423 67.2466 25.8423 67.0385C25.7388 66.9344 25.7388 66.7263 25.7388 66.5182C25.7388 66.31 25.7388 66.206 25.8423 66.1019C25.8423 65.9978 25.9458 65.8938 26.0493 65.7897C26.1528 65.6856 26.2563 65.5816 26.3598 65.4775C26.4633 65.3734 26.5668 65.3734 26.6703 65.2694C26.4633 65.0612 26.2563 64.9572 26.1528 64.749C26.0493 64.5409 25.9458 64.3328 25.9458 64.0206C25.9458 63.8124 25.9458 63.6043 26.0493 63.5002C26.1528 63.2921 26.2563 63.188 26.3598 63.084C26.4633 62.9799 26.6703 62.8758 26.8772 62.7718C27.2912 62.6677 27.6017 62.6677 28.0157 62.7718C28.2226 62.7718 28.3261 62.8758 28.4296 62.9799C28.5331 63.084 28.6366 63.188 28.7401 63.2921C28.8436 63.3962 28.8436 63.6043 28.8436 63.8124C28.8436 64.0206 28.8436 64.1246 28.7401 64.2287C28.6366 64.3328 28.5331 64.4368 28.5331 64.5409C28.4296 64.645 28.3261 64.749 28.2226 64.749C28.1191 64.749 28.1191 64.8531 28.1191 64.8531C28.2226 64.9572 28.3261 64.9572 28.5331 65.0612C28.6366 65.1653 28.7401 65.2694 28.8436 65.3734C28.9471 65.4775 29.0506 65.5816 29.0506 65.7897C29.1541 65.8938 29.1541 66.1019 29.1541 66.31C28.9471 66.5182 28.9471 66.6222 28.8436 66.8303ZM25.0144 66.8303C24.9109 67.0385 24.8074 67.1425 24.7039 67.3507C24.497 67.4547 24.3935 67.5588 24.1865 67.6629C23.9795 67.7669 23.7725 67.7669 23.462 67.7669C23.2551 67.7669 23.0481 67.7669 22.8411 67.6629C22.6341 67.5588 22.4271 67.5588 22.3236 67.4547C22.2201 67.3507 22.0132 67.2466 22.0132 67.0385C21.9097 66.9344 21.9097 66.7263 21.9097 66.5182C21.9097 66.31 21.9097 66.206 22.0132 66.1019C22.1167 65.9978 22.1167 65.8938 22.2201 65.7897C22.3236 65.6856 22.4271 65.5816 22.5306 65.4775C22.6341 65.3734 22.7376 65.3734 22.8411 65.2694C22.6341 65.0612 22.4271 64.9572 22.3236 64.749C21.9097 64.5409 21.9097 64.3328 21.9097 64.0206C21.9097 63.8124 21.9097 63.6043 22.0132 63.5002C22.1167 63.2921 22.2201 63.188 22.3236 63.084C22.4271 62.9799 22.6341 62.8758 22.8411 62.7718C23.2551 62.6677 23.5655 62.6677 23.9795 62.7718C24.1865 62.7718 24.29 62.8758 24.3935 62.9799C24.497 63.084 24.6004 63.188 24.7039 63.2921C24.8074 63.3962 24.8074 63.6043 24.8074 63.8124C24.8074 64.0206 24.8074 64.1246 24.7039 64.2287C24.6004 64.3328 24.497 64.4368 24.3935 64.5409C24.29 64.645 24.1865 64.749 24.083 64.749L23.9795 64.8531C24.083 64.9572 24.1865 64.9572 24.3935 65.0612C24.497 65.1653 24.6004 65.2694 24.7039 65.3734C24.8074 65.4775 24.9109 65.5816 24.9109 65.7897C25.0144 65.8938 25.0144 66.1019 25.0144 66.31C25.1179 66.5182 25.1179 66.6222 25.0144 66.8303ZM21.1852 67.6629H18.4945V67.2466H19.0119C19.1154 67.2466 19.2189 67.2466 19.2189 67.1425C19.2189 67.1425 19.3224 67.0385 19.3224 66.9344V64.3328C19.3224 64.2287 19.3224 64.1246 19.2189 64.0206C19.1154 63.9165 19.0119 63.9165 18.8049 63.9165H18.4945V63.3962C18.598 63.3962 18.7014 63.3962 18.8049 63.2921C18.9084 63.2921 19.0119 63.188 19.2189 63.188C19.3224 63.084 19.4259 63.084 19.6329 62.9799C19.7364 62.8758 19.8398 62.8758 19.9433 62.7718H20.4608V66.8303C20.4608 67.0385 20.4608 67.0385 20.5643 67.0385C20.5643 67.0385 20.6678 67.1425 20.7713 67.1425H21.2887L21.1852 67.6629ZM9.69771 48.7228C9.8012 48.5147 10.0082 48.5147 10.2152 48.6188C10.5256 48.7228 10.8361 48.8269 11.1466 48.931C11.3536 49.035 11.5605 49.035 11.7675 49.1391C11.9745 49.3472 11.871 49.5554 11.7675 49.7635C11.5605 50.1798 10.9396 50.0757 10.6291 49.8676C10.4221 49.7635 10.2152 49.5554 10.0082 49.3472C9.8012 49.2432 9.59421 49.035 9.69771 48.7228ZM10.1117 46.5374C10.3187 46.3293 10.5256 46.1212 10.7326 45.9131C10.8361 45.7049 11.0431 45.3927 11.3536 45.4968C11.5605 45.6009 11.5605 45.913 11.5605 46.1212C11.5605 46.4334 11.3536 46.6415 11.2501 46.8496C11.1466 47.0578 11.3536 47.2659 11.1466 47.37C10.8361 47.474 10.5256 47.37 10.2152 47.37C10.0082 47.37 9.8012 47.37 9.8012 47.1618C9.69771 46.9537 10.0082 46.7456 10.1117 46.5374ZM18.0805 33.217C18.391 32.8007 19.0119 32.9048 19.4259 33.1129C20.0468 33.4251 20.4608 33.8414 20.8748 34.2576C21.3922 34.6739 21.9097 35.0902 22.3236 35.6105C22.5306 35.7146 22.5306 36.0268 22.4271 36.1308C22.2201 36.339 22.0132 36.1308 21.8062 36.0268C21.2887 35.7146 20.5643 36.0268 20.0468 35.7146C19.8398 35.6105 19.6329 35.2983 19.8398 35.0902C19.9433 34.9861 20.0468 34.6739 19.8398 34.6739C19.3224 34.4658 18.7014 34.882 18.2875 34.3617C17.8735 34.1536 17.77 33.5292 18.0805 33.217ZM28.4296 32.8007C28.6366 31.9682 29.775 31.8641 30.396 32.2804C30.8099 32.4885 30.7064 33.1129 30.7064 33.4251C30.7064 33.9454 31.0169 34.3617 31.2239 34.778C31.3274 35.1942 31.2239 35.6105 30.8099 35.8186C30.396 36.0268 30.189 35.6105 29.982 35.2983C29.775 34.882 29.4645 34.3617 29.1541 33.9454C28.8436 33.6332 28.3261 33.321 28.4296 32.8007ZM31.8448 33.5292C31.9483 33.321 32.2588 33.321 32.4658 33.321C33.0867 33.321 33.6042 33.5292 34.0181 34.0495C34.2251 34.2576 34.5356 34.4658 34.3286 34.778C34.2251 34.9861 33.9147 34.9861 33.7077 34.9861C33.0867 34.9861 32.5693 34.5698 32.0518 34.1536C31.9483 34.0495 31.6378 33.7373 31.8448 33.5292ZM39.5032 46.6415C39.6067 46.4334 39.9171 46.4334 40.1241 46.5374C40.5381 46.5374 41.0555 46.7456 41.2625 47.1618C41.4695 47.474 41.0555 47.8903 40.6416 47.7862C40.4346 47.6822 40.3311 47.474 40.2276 47.37C40.0206 47.2659 39.8136 47.2659 39.6067 47.1618C39.5032 46.9537 39.3997 46.7456 39.5032 46.6415ZM42.1939 47.7862C42.4009 47.9944 42.5044 48.3066 42.2974 48.5147C42.0905 48.6188 41.6765 48.5147 41.573 48.3066C41.2625 47.9944 41.8835 47.474 42.1939 47.7862ZM25.3249 28.0137C13.1129 28.0137 3.28125 37.9 3.28125 50.1798C3.28125 62.3555 13.1129 72.2418 25.3249 72.2418C37.4334 72.2418 47.3685 62.3555 47.3685 50.0757C47.265 37.9 37.4334 28.0137 25.3249 28.0137Z" fill="#026937"/>
<path d="M31.121 65.166C31.0175 65.166 30.914 65.166 30.914 65.166C30.8105 65.166 30.8105 65.2701 30.707 65.2701C30.707 65.3741 30.707 65.4782 30.707 65.5823C30.707 65.6863 30.707 65.7904 30.707 65.8945C30.707 66.1026 30.707 66.3107 30.707 66.4148C30.707 66.6229 30.707 66.727 30.8105 66.8311C30.8105 66.9351 30.914 67.0392 31.0175 67.1433C31.121 67.2473 31.2245 67.2473 31.328 67.2473C31.535 67.2473 31.6385 67.1433 31.7419 67.0392C31.8454 66.8311 31.8454 66.6229 31.8454 66.2067C31.8454 65.8945 31.8454 65.5823 31.7419 65.3741C31.535 65.2701 31.328 65.166 31.121 65.166Z" fill="#026937"/>
<path d="M26.7734 64.2282C26.8769 64.3322 26.8769 64.3322 26.9804 64.4363C27.0839 64.4363 27.1874 64.5404 27.2908 64.5404L27.4978 64.6444C27.6013 64.5404 27.7048 64.4363 27.7048 64.3322C27.8083 64.2282 27.8083 64.02 27.8083 63.8119C27.8083 63.6038 27.7048 63.3956 27.6013 63.2916C27.4978 63.1875 27.3943 63.1875 27.1874 63.1875C26.9804 63.1875 26.8769 63.1875 26.7734 63.2916C26.6699 63.3956 26.5664 63.4997 26.5664 63.7078C26.5664 63.8119 26.5664 63.916 26.5664 64.02C26.6699 64.02 26.7734 64.1241 26.7734 64.2282Z" fill="#026937"/>
<path d="M23.9782 65.9988C23.8747 65.8948 23.7712 65.8948 23.7712 65.7907C23.6677 65.6866 23.5642 65.6866 23.4607 65.5826L23.0468 65.4785C22.9433 65.5826 22.8398 65.6866 22.7363 65.8948C22.6328 66.1029 22.6328 66.207 22.6328 66.4151C22.6328 66.7273 22.7363 66.9354 22.8398 67.0395C22.9433 67.1436 23.1503 67.2476 23.3572 67.2476C23.5642 67.2476 23.7712 67.1436 23.8747 67.0395C23.9782 66.9354 24.0817 66.7273 24.0817 66.5192C24.0817 66.4151 24.0817 66.311 23.9782 66.207C24.0817 66.207 23.9782 66.1029 23.9782 65.9988Z" fill="#026937"/>
<path d="M27.8102 65.9988C27.7067 65.8948 27.6032 65.8948 27.6032 65.7907C27.4998 65.6866 27.3963 65.6866 27.2928 65.5826L26.8788 65.4785C26.7753 65.5826 26.6718 65.6866 26.5683 65.8948C26.4648 66.1029 26.4648 66.207 26.4648 66.4151C26.4648 66.7273 26.5683 66.9354 26.6718 67.0395C26.7753 67.1436 26.9823 67.2476 27.1893 67.2476C27.3963 67.2476 27.6032 67.1436 27.7067 67.0395C27.8102 66.9354 27.9137 66.7273 27.9137 66.5192C27.9137 66.4151 27.9137 66.311 27.8102 66.207C27.9137 66.207 27.9137 66.1029 27.8102 65.9988Z" fill="#026937"/>
<path d="M22.9453 64.2282C23.0488 64.3322 23.0488 64.3322 23.1522 64.4363C23.2557 64.4363 23.3592 64.5404 23.4627 64.5404L23.6697 64.6444C23.7732 64.5404 23.8767 64.4363 23.8767 64.3322C23.9802 64.2282 23.9802 64.02 23.9802 63.8119C23.9802 63.6038 23.8767 63.3956 23.7732 63.2916C23.6697 63.1875 23.5662 63.1875 23.3592 63.1875C23.1522 63.1875 23.0488 63.1875 22.9453 63.2916C22.8418 63.3956 22.7383 63.4997 22.7383 63.7078C22.7383 63.8119 22.7383 63.916 22.7383 64.02C22.8418 64.02 22.9453 64.1241 22.9453 64.2282Z" fill="#026937"/>
</g>
</svg>
